<?xml version="1.0" encoding="UTF-8" standalone="no"?>
<!-- Created with Inkscape (http://www.inkscape.org/) -->

<svg
   xmlns:dc="http://purl.org/dc/elements/1.1/"
   xmlns:cc="http://creativecommons.org/ns#"
   xmlns:rdf="http://www.w3.org/1999/02/22-rdf-syntax-ns#"
   xmlns:svg="http://www.w3.org/2000/svg"
   xmlns="http://www.w3.org/2000/svg"
   xmlns:sodipodi="http://sodipodi.sourceforge.net/DTD/sodipodi-0.dtd"
   xmlns:inkscape="http://www.inkscape.org/namespaces/inkscape"
   width="22"
   height="22"
   id="svg2"
   version="1.1"
   inkscape:version="0.48.0 r9654"
   sodipodi:docname="flightmode.svg">
  <defs
     id="defs4" />
  <sodipodi:namedview
     id="base"
     pagecolor="#ffffff"
     bordercolor="#bababa"
     borderopacity="1"
     inkscape:pageopacity="0.0"
     inkscape:pageshadow="2"
     inkscape:zoom="1"
     inkscape:cx="-66.871625"
     inkscape:cy="161.70267"
     inkscape:document-units="px"
     inkscape:current-layer="layer1"
     showgrid="false"
     fit-margin-top="0"
     fit-margin-left="0"
     fit-margin-right="0"
     fit-margin-bottom="0"
     inkscape:showpageshadow="false"
     showborder="true"
     inkscape:window-width="1024"
     inkscape:window-height="715"
     inkscape:window-x="1024"
     inkscape:window-y="24"
     inkscape:window-maximized="1">
    <inkscape:grid
       type="xygrid"
       id="grid3399"
       empspacing="5"
       visible="true"
       enabled="true"
       snapvisiblegridlinesonly="true" />
  </sodipodi:namedview>
  <metadata
     id="metadata7">
    <rdf:RDF>
      <cc:Work
         rdf:about="">
        <dc:format>image/svg+xml</dc:format>
        <dc:type
           rdf:resource="http://purl.org/dc/dcmitype/StillImage" />
        <dc:title />
      </cc:Work>
    </rdf:RDF>
  </metadata>
  <g
     inkscape:label="Layer 1"
     inkscape:groupmode="layer"
     id="layer1"
     transform="translate(106.88954,-562.61893)">
    <path
       style="font-size:12px;fill:#606060;fill-opacity:1;fill-rule:evenodd;stroke:#606060;stroke-width:1.00000024;stroke-miterlimit:4;stroke-opacity:1;stroke-dasharray:none"
       sodipodi:nodetypes="cccccccccccczccccccccccccc"
       id="path641"
       d="m -105.36662,570.92691 c 0.22585,-0.41533 0.91366,-0.46823 1.40145,-0.46945 0.30012,0.0299 0.45183,0.45156 0.45183,0.45156 0,0 0.67972,1.25751 0.90367,1.80622 0.49948,-0.3272 1.35551,-0.45156 1.35551,-0.45156 l 3.16284,3e-5 0,-1.35469 c 0,0 -1.627734,-5.20509 -1.807334,-5.87023 -0.179616,-0.66513 0.21669,-0.83219 0.903665,-0.90311 0.686982,-0.0708 1.134082,0.0833 1.355503,0.45155 0.174544,0.30413 4.518342,7.67648 4.518342,7.67648 l 4.970176,2.6e-4 c 0,0 1.761397,0.026 1.761397,1.38454 0,1.35853 -1.761397,1.3248 -1.761397,1.3248 l -4.970176,-2.6e-4 c 0,0 -4.342276,7.37314 -4.518342,7.67642 -0.223265,0.36706 -1.120717,0.52594 -1.807338,0.45156 -0.686616,-0.0744 -0.634766,-0.69049 -0.45183,-1.35467 0.18293,-0.66424 1.807334,-5.41867 1.807334,-5.41867 l -4e-6,-1.35464 -3.162836,-3e-5 c 0,0 -0.85768,-0.12178 -1.35551,-0.45156 -0.22669,0.54756 -0.90367,1.80623 -0.90367,1.80623 0,0 -0.19149,0.24361 -0.45183,0.45155 -0.4423,0.19794 -1.33576,-0.1276 -1.40145,-0.43366 -0.008,-1.95705 -0.0474,-3.46288 0,-5.41867 z"
       inkscape:connector-curvature="0" />
  </g>
</svg>
